<?xml version="1.0" encoding="iso-8859-1"?>
<!-- Generator: Adobe Illustrator 22.1.0, SVG Export Plug-In . SVG Version: 6.00 Build 0)  -->
<svg version="1.1" id="&#x56FE;&#x5C42;_1" xmlns="http://www.w3.org/2000/svg" xmlns:xlink="http://www.w3.org/1999/xlink" x="0px"
	 y="0px" viewBox="0 0 595.276 841.89" style="enable-background:new 0 0 595.276 841.89;" xml:space="preserve">
<g>
	<path d="M180.911,426.863h45.079c1.551,0,2.515,0.999,2.515,2.608v39.943c0,1.609-0.964,2.608-2.515,2.608h-0.746
		c-2.344,0-4.112,1.768-4.112,4.112v0.093c0,2.344,1.767,4.112,4.112,4.112h0.746c1.722,0,3.104-0.267,4.291-0.815
		c1.205-0.463,2.459-1.309,3.53-2.381c2.093-2.092,3.2-4.764,3.2-7.729v-39.943c0-4.401-2.598-8.269-6.761-10.085
		c-1.387-0.638-2.741-0.934-4.259-0.934h-38.709l0.864-2.188c0.715-2.153-0.336-4.442-2.426-5.224l-0.193-0.061
		c-0.471-0.206-0.976-0.31-1.501-0.31c-1.67,0-3.231,1.059-3.792,2.557l-3.178,8.038c-0.484,1.271-0.309,2.703,0.469,3.83
		C178.298,426.218,179.533,426.863,180.911,426.863z"/>
	<path d="M233.55,488.17h-42.84c-1.213,0-2.245-0.453-3.095-1.377c-0.814-0.817-1.193-1.772-1.193-3.006v-11.943h25.289
		c1.42,0,2.755-0.26,4.25-0.838c4.239-1.905,6.769-5.673,6.769-10.084v-16.896c0-2.923-1.136-5.668-3.198-7.725
		c-2.118-2.121-4.895-3.289-7.821-3.289h-22.681c-2.825,0-5.641,1.199-7.725,3.287c-2.091,2.086-3.29,4.902-3.29,7.727v39.76
		c0,1.553,0.316,3.121,1.016,4.984c1.305,3.005,3.611,5.348,6.742,6.805c1.618,0.611,3.234,0.907,4.938,0.907h42.84
		c2.306,0,4.112-1.804,4.112-4.107v-0.094C237.662,489.937,235.894,488.17,233.55,488.17z M186.422,444.028
		c0-0.81,0.216-1.372,0.773-1.932c0.398-0.455,0.998-0.676,1.835-0.676h22.681c0.883,0,1.414,0.197,1.834,0.676l0.091,0.092
		c0.558,0.495,0.776,1.012,0.776,1.84v16.896c0,1.024-0.29,1.459-0.723,1.796l-0.097,0.085c-0.496,0.495-1.094,0.727-1.882,0.727
		h-25.289V444.028z"/>
	<path d="M298.833,418.452h-8.116v-4.383c0-2.19-1.921-4.112-4.112-4.112h-0.187c-2.191,0-4.112,1.922-4.112,4.112v4.383h-11.959
		c-2.178,0-4.018,1.883-4.018,4.112v0.187c0,2.191,1.878,4.112,4.018,4.112h4.774v12.314c0,18.733-1.905,36.079-5.649,51.503
		c-0.315,1.066-0.149,2.23,0.455,3.195c0.556,0.887,1.434,1.507,2.427,1.72l0.211,0.116c0.318,0.071,0.642,0.107,0.963,0.107
		c1.958,0,3.605-1.329,3.996-3.194c3.28-13.209,5.226-28.39,5.787-45.137h7.304c0.743,0,1.268,0.232,1.791,0.82
		c0.488,0.488,0.727,1.074,0.727,1.788v34.997c0,0.625-0.239,1.211-0.729,1.791c-0.574,0.487-1.161,0.724-1.79,0.724h-2.237
		c-2.267,0-4.111,1.845-4.111,4.112v0.188c0,2.267,1.844,4.111,4.111,4.111h2.237c1.415,0,2.748-0.259,4.259-0.842
		c2.599-1.201,4.498-3.135,5.607-5.671c0.649-1.197,0.965-2.641,0.965-4.413v-34.997c0-1.655-0.286-2.94-0.926-4.154
		c-0.451-1.235-1.142-2.328-2.248-3.554c-1.994-2.103-4.784-3.308-7.656-3.308h-7.178v-12.217h15.394
		c2.189,0,4.108-1.921,4.108-4.112v-0.187C302.942,420.297,301.099,418.452,298.833,418.452z"/>
	<path d="M338.759,456.624h-8.529c2.68-5.885,4.763-12.692,6.21-20.33c0.132-1.304-0.187-2.476-0.902-3.302
		c-0.841-0.962-1.947-1.471-3.199-1.471h-23.24c-2.306,0-4.112,1.806-4.112,4.202c0,2.306,1.806,4.111,4.112,4.111h18.324
		c-1.345,6.018-3.334,11.135-6.514,16.791h-13.397c-2.306,0-4.112,1.806-4.112,4.112v0.093c0,2.306,1.806,4.112,4.112,4.112h12.032
		v19.687c0,0.93-0.262,1.693-0.801,2.33c-0.805,0.626-1.579,0.931-2.365,0.931h-4.761c-2.267,0-4.112,1.844-4.112,4.111v0.189
		c0,2.267,1.845,4.112,4.112,4.112h4.761c1.627,0,3.148-0.344,4.52-1.021c1.299-0.505,2.535-1.32,3.582-2.362
		c2.149-2.151,3.383-5.172,3.383-8.289v-19.687h10.897c2.306,0,4.112-1.806,4.112-4.112v-0.093
		C342.871,458.43,341.065,456.624,338.759,456.624z"/>
	<path d="M309.704,427.103h25.691c2.267,0,4.111-1.845,4.111-4.112v-0.188c0-2.267-1.844-4.111-4.111-4.111h-19.607l0.506-1.57
		c0.613-2.09-0.491-4.292-2.519-5.058l-0.247-0.147c-0.396-0.109-0.801-0.165-1.205-0.165c-1.77,0-3.356,1.07-4.061,2.783
		l-2.421,7.079c-0.458,1.267-0.289,2.554,0.531,3.782C307.239,426.512,308.391,427.103,309.704,427.103z"/>
	<path d="M425.555,462.824h-13.998c-1.328,0-2.409,1.08-2.409,2.408v0.055c0,1.351,1.058,2.409,2.409,2.409h13.998
		c1.373,0,2.409-1.035,2.409-2.409v-0.055C427.964,463.882,426.906,462.824,425.555,462.824z"/>
	<g>
		<path d="M391.729,419.573h-30.513c-3.039,0-5.682,1.776-6.902,4.647c-0.398,0.994-0.591,1.944-0.591,2.904v39.369
			c0,1.327,1.081,2.406,2.409,2.406h0.165c1.328,0,2.409-1.079,2.409-2.406v-39.369c0-0.774,0.215-1.333,0.7-1.816
			c0.511-0.513,1.086-0.752,1.811-0.752h30.513c0.734,0,1.294,0.232,1.815,0.753c0.482,0.482,0.698,1.042,0.698,1.815v34.172
			c0,0.776-0.215,1.341-0.698,1.87c-0.483,0.482-1.043,0.698-1.815,0.698h-1.86c-1.351,0-2.409,1.058-2.409,2.409v0.11
			c0,1.351,1.058,2.409,2.409,2.409h1.86c0.955,0,1.905-0.193,2.928-0.601c1.884-0.85,3.22-2.19,3.973-3.989
			c0.398-0.989,0.592-1.939,0.592-2.906v-34.172c0-0.965-0.193-1.916-0.595-2.916C397.411,421.348,394.768,419.573,391.729,419.573z
			"/>
		<path d="M391.486,459.894c0.359,0,0.711-0.08,1.047-0.238l0.12-0.086c0.521-0.255,0.933-0.717,1.138-1.279
			c0.221-0.608,0.185-1.284-0.095-1.847l-5.298-11.129c1.862-4.444,3.273-8.976,4.192-13.468c0.156-0.703,0.033-1.312-0.351-1.821
			c-0.384-0.61-0.927-0.96-1.614-1.04c-0.152-0.033-0.309-0.05-0.464-0.05c-1.077,0-2.046,0.789-2.304,1.883
			c-0.677,3.051-1.459,5.803-2.376,8.366l-4.136-8.702c-0.267-0.597-0.683-0.995-1.347-1.288l-0.113-0.037
			c-0.251-0.057-0.48-0.083-0.702-0.083c-0.416,0-0.794,0.1-1.128,0.297c-0.555,0.243-0.977,0.689-1.191,1.261
			c-0.229,0.613-0.191,1.305,0.1,1.888l6.002,12.699c-1.82,3.811-3.982,7.475-6.612,11.203c-0.723,1.081-0.482,2.525,0.543,3.309
			l0.026,0.025l0.068,0.058c0.41,0.3,0.889,0.459,1.386,0.459c0.764,0,1.501-0.384,1.979-1.033c2.067-2.916,3.801-5.68,5.278-8.415
			l3.689,7.666C389.729,459.356,390.559,459.894,391.486,459.894z"/>
		<path d="M376.073,452.148l-4.176-7.561c1.692-3.963,3.043-8.249,4.017-12.74c0.148-0.664,0.007-1.273-0.404-1.819
			c-0.25-0.401-0.689-0.943-1.618-1.042c-0.152-0.033-0.307-0.049-0.462-0.049c-1.078,0-2.046,0.789-2.306,1.888
			c-0.603,2.831-1.376,5.579-2.304,8.185l-4.454-8.14c-0.304-0.535-0.81-0.943-1.426-1.149l-0.06-0.017
			c-0.204-0.046-0.397-0.068-0.589-0.068c-0.423,0-0.833,0.107-1.332,0.36c-1.155,0.693-1.503,2.105-0.819,3.266l6.307,11.6
			c-1.752,3.8-3.984,7.581-6.826,11.562c-0.707,1.058-0.458,2.518,0.566,3.325l0.105,0.066l0.07,0.035
			c0.383,0.261,0.833,0.399,1.305,0.399c0.81,0,1.548-0.409,1.949-1.052c2.042-2.755,3.944-5.824,5.661-9.136l2.458,4.424
			c0.366,0.653,0.84,1.024,1.45,1.159c0.257,0.076,0.494,0.113,0.723,0.113c0.424,0,0.828-0.129,1.234-0.394
			C376.243,454.758,376.666,453.333,376.073,452.148z"/>
		<path d="M412.542,443.145h3.993l-5.793,11.484c-0.376,0.753-0.336,1.631,0.107,2.347c0.446,0.721,1.222,1.151,2.075,1.151h11.536
			c1.351,0,2.409-1.058,2.409-2.408v-0.055c0-1.373-1.036-2.409-2.409-2.409h-7.335l8.694-17.442
			c0.589-1.171,0.155-2.548-1.034-3.216l-0.084-0.041c-0.342-0.193-0.731-0.295-1.124-0.295c-0.883,0-1.71,0.494-2.17,1.312
			l-2.414,4.727c-0.105-0.016-0.215-0.025-0.328-0.025h-1.962l7.087-15.626c0.286-0.535,0.321-1.195,0.097-1.809
			c-0.213-0.581-0.637-1.076-1.165-1.358l-0.136-0.052l-0.159-0.041c-0.306-0.142-0.633-0.214-0.974-0.214
			c-0.927,0-1.786,0.551-2.189,1.406l-8.86,19.141c-0.35,0.77-0.291,1.647,0.159,2.347
			C410.998,442.743,411.737,443.145,412.542,443.145z"/>
		<path d="M457.866,444.111l-10.112-6.417c3.862-3.647,6.983-7.75,9.289-12.215c0.377-0.752,0.338-1.63-0.105-2.346
			c-0.446-0.722-1.221-1.153-2.075-1.153h-18.272l0.097-0.266c0.362-1.236-0.256-2.544-1.36-2.957l-0.111-0.054
			c-0.312-0.147-0.64-0.222-0.979-0.222c-0.925,0-1.804,0.584-2.189,1.466l-1.476,3.61c-0.31,0.756-0.223,1.611,0.231,2.289
			c0.445,0.663,1.18,1.059,1.968,1.059h17.779c-1.97,3.091-4.237,5.771-6.901,8.156l-11.09-7.132
			c-0.379-0.251-0.818-0.383-1.272-0.383c-0.789,0-1.528,0.39-1.991,1.048l-0.017,0.017l-0.084,0.106
			c-0.704,1.132-0.386,2.598,0.735,3.343l9.695,6.193c-3.185,2.256-6.817,4.214-11.059,5.965c-0.559,0.209-1.021,0.662-1.267,1.243
			c-0.247,0.585-0.256,1.24-0.025,1.808l0.022,0.108c0.38,0.87,1.259,1.454,2.186,1.454c0.337,0,0.665-0.074,0.948-0.207
			c4.879-2.007,9.392-4.577,13.418-7.641l11.371,7.242c0.352,0.253,0.786,0.387,1.256,0.387c0.194,0,0.394-0.023,0.582-0.065
			c0.67-0.134,1.16-0.481,1.544-1.093C459.308,446.323,458.988,444.857,457.866,444.111z"/>
		<path d="M451.581,447.461h-15.693c-1.679,0-3.287,0.684-4.537,1.936c-1.254,1.314-1.916,2.895-1.916,4.572v8.421
			c0,2.579,1.521,4.845,3.959,5.908c0.813,0.374,1.605,0.548,2.494,0.548h15.693c3.529,0,6.4-2.896,6.4-6.456v-8.421
			c0-0.847-0.161-1.693-0.493-2.55C456.361,448.977,454.097,447.461,451.581,447.461z M453.056,462.39
			c0,0.942-0.565,1.528-1.475,1.528h-15.693c-0.438,0-0.829-0.151-1.102-0.425c-0.303-0.302-0.426-0.622-0.426-1.103v-8.421
			c0-0.499,0.135-0.867,0.426-1.158c0.273-0.273,0.664-0.424,1.102-0.424h15.693c0.421,0,0.763,0.139,1.049,0.425
			c0.29,0.29,0.426,0.659,0.426,1.157V462.39z"/>
	</g>
	<path d="M165.687,473.572c-0.314-0.076-0.637-0.116-0.96-0.116c-1.913,0-3.615,1.357-4.049,3.227
		c-1.083,4.65-2.559,9.473-4.388,14.338c-0.807,2.152,0.286,4.557,2.438,5.364c0.471,0.176,0.963,0.265,1.46,0.265
		c1.724,0,3.29-1.085,3.9-2.7c1.957-5.207,3.539-10.382,4.702-15.38c0.252-1.083,0.067-2.2-0.52-3.144
		C167.682,474.48,166.761,473.822,165.687,473.572z"/>
	<path d="M158.871,414.759c-0.766,0.012-1.515,0.235-2.168,0.647c-1.934,1.228-2.514,3.803-1.297,5.731
		c0.103,0.168,10.685,13.363,7.039,43.626c-0.133,1.104,0.172,2.193,0.859,3.068c0.686,0.875,1.674,1.43,2.772,1.562
		c0.192,0.025,0.384,0.033,0.57,0.03c2.073-0.031,3.822-1.608,4.069-3.667c4.055-33.649-7.782-48.305-8.271-49.073
		C161.663,415.456,160.328,414.737,158.871,414.759z"/>
	<path d="M259.39,473.572c-0.314-0.076-0.637-0.116-0.96-0.116c-1.913,0-3.615,1.357-4.049,3.227
		c-1.083,4.65-2.559,9.473-4.388,14.338c-0.806,2.152,0.286,4.557,2.438,5.364c0.472,0.176,0.963,0.265,1.461,0.265
		c1.723,0,3.29-1.085,3.899-2.7c1.957-5.207,3.539-10.382,4.703-15.38c0.251-1.083,0.066-2.2-0.52-3.144
		C261.385,474.48,260.464,473.822,259.39,473.572z"/>
	<path d="M252.574,414.759c-0.766,0.012-1.514,0.235-2.167,0.647c-1.934,1.228-2.514,3.803-1.297,5.731
		c0.103,0.168,10.685,13.363,7.039,43.626c-0.132,1.104,0.173,2.193,0.859,3.068c0.686,0.875,1.674,1.43,2.772,1.562
		c0.192,0.025,0.384,0.033,0.571,0.03c2.073-0.031,3.822-1.608,4.069-3.667c4.055-33.649-7.782-48.305-8.271-49.073
		C255.367,415.456,254.031,414.737,252.574,414.759z"/>
	<path d="M362.912,484.23c0,1.271-0.45,2.361-1.351,3.273c-0.9,0.913-1.997,1.368-3.291,1.368h-1.524v7.429h-3.083v-15.146
		c0-1.457,0.485-2.614,1.455-3.47c0.854-0.763,1.905-1.145,3.152-1.145c1.27,0,2.332,0.381,3.187,1.143
		c0.97,0.855,1.455,2.009,1.455,3.464V484.23z M359.83,484.23v-3.083c0-1.015-0.508-1.524-1.525-1.524
		c-0.415,0-0.779,0.139-1.091,0.416c-0.312,0.277-0.468,0.647-0.468,1.108v4.642h1.524c0.462,0,0.837-0.167,1.126-0.502
		C359.685,484.952,359.83,484.599,359.83,484.23z"/>
	<path d="M381.645,496.3h-3.083v-7.429h-3.083v7.429h-3.083v-15.146c0-1.295,0.456-2.388,1.369-3.279
		c0.912-0.891,1.992-1.336,3.239-1.336c1.223,0,2.303,0.439,3.239,1.319c0.935,0.879,1.403,1.978,1.403,3.296V496.3z
		 M378.561,485.788v-4.642c0-0.416-0.144-0.773-0.433-1.074c-0.289-0.299-0.664-0.45-1.126-0.45c-0.439,0-0.803,0.145-1.091,0.433
		c-0.289,0.289-0.433,0.652-0.433,1.091v4.642H378.561z"/>
	<path d="M400.376,491.685c0,1.458-0.485,2.615-1.455,3.47c-0.854,0.763-1.917,1.145-3.186,1.145c-1.247,0-2.298-0.382-3.153-1.145
		c-0.97-0.856-1.455-2.013-1.455-3.47v-10.531c0-1.457,0.485-2.614,1.455-3.47c0.854-0.763,1.905-1.145,3.153-1.145
		c1.27,0,2.332,0.381,3.186,1.145c0.97,0.856,1.455,2.013,1.455,3.47V491.685z M397.293,491.69v-10.54
		c0-1.018-0.52-1.527-1.559-1.527c-1.016,0-1.524,0.509-1.524,1.527v10.54c0,1.018,0.508,1.527,1.524,1.527
		C396.774,493.217,397.293,492.708,397.293,491.69z"/>
	<path d="M419.108,484.242c0,1.088-0.331,2.036-0.993,2.845c-0.549,0.718-1.245,1.226-2.09,1.527v7.686h-3.083v-7.652
		c-2.055-0.809-3.083-2.278-3.083-4.406v-7.702h3.083v7.69c0,1.039,0.52,1.559,1.559,1.559c1.016,0,1.525-0.52,1.525-1.559v-7.69
		h3.083V484.242z"/>
	<path d="M437.84,491.685c0,1.458-0.485,2.615-1.455,3.47c-0.855,0.763-1.917,1.145-3.187,1.145c-1.247,0-2.298-0.382-3.152-1.145
		c-0.97-0.856-1.455-2.013-1.455-3.47v-10.531c0-1.457,0.485-2.614,1.455-3.47c0.854-0.763,1.905-1.145,3.152-1.145
		c1.27,0,2.332,0.381,3.187,1.145c0.97,0.856,1.455,2.013,1.455,3.47V491.685z M434.757,491.69v-10.54
		c0-1.018-0.52-1.527-1.559-1.527c-1.016,0-1.524,0.509-1.524,1.527v10.54c0,1.018,0.508,1.527,1.524,1.527
		C434.238,493.217,434.757,492.708,434.757,491.69z"/>
	<path d="M456.572,491.685c0,1.458-0.485,2.615-1.455,3.47c-0.878,0.763-1.94,1.145-3.186,1.145c-1.247,0-2.298-0.382-3.153-1.145
		c-0.97-0.856-1.455-2.013-1.455-3.47V476.54h3.083v15.119c0,1.039,0.496,1.559,1.489,1.559c0.438,0,0.814-0.139,1.126-0.415
		c0.312-0.277,0.468-0.659,0.468-1.143V476.54h3.083V491.685z"/>
	<path d="M110.023,459.392c0.038,0.044,0.078,0.095,0.118,0.144C110.101,459.485,110.061,459.437,110.023,459.392z"/>
</g>
<g>
	<linearGradient id="SVGID_1_" gradientUnits="userSpaceOnUse" x1="357.7782" y1="254.0937" x2="378.2338" y2="254.0937">
		<stop  offset="0" style="stop-color:#6FBDCE"/>
		<stop  offset="0.5083" style="stop-color:#44B1C2"/>
		<stop  offset="0.6491" style="stop-color:#3CA9C3"/>
		<stop  offset="0.8698" style="stop-color:#2595C7"/>
		<stop  offset="1" style="stop-color:#1586C9"/>
	</linearGradient>
	<polygon style="fill:url(#SVGID_1_);" points="368.006,243.83 370.768,251.322 378.234,254.094 370.768,256.866 368.006,264.358 
		365.244,256.866 357.778,254.094 365.244,251.322 	"/>
	<linearGradient id="SVGID_2_" gradientUnits="userSpaceOnUse" x1="373.6642" y1="271.1785" x2="382.8034" y2="271.1785">
		<stop  offset="0" style="stop-color:#6FBDCE"/>
		<stop  offset="0.5083" style="stop-color:#44B1C2"/>
		<stop  offset="0.6491" style="stop-color:#3CA9C3"/>
		<stop  offset="0.8698" style="stop-color:#2595C7"/>
		<stop  offset="1" style="stop-color:#1586C9"/>
	</linearGradient>
	<polygon style="fill:url(#SVGID_2_);" points="378.234,266.593 379.468,269.94 382.803,271.178 379.468,272.417 378.234,275.764 
		376.999,272.417 373.664,271.178 376.999,269.94 	"/>
	
		<linearGradient id="SVGID_3_" gradientUnits="userSpaceOnUse" x1="296.0899" y1="162.3335" x2="342.6061" y2="162.3335" gradientTransform="matrix(0.9987 -0.0517 0.0517 0.9987 -9.7741 173.8306)">
		<stop  offset="0" style="stop-color:#6FBDCE"/>
		<stop  offset="0.5083" style="stop-color:#44B1C2"/>
		<stop  offset="0.6491" style="stop-color:#3CA9C3"/>
		<stop  offset="0.8698" style="stop-color:#2595C7"/>
		<stop  offset="1" style="stop-color:#1586C9"/>
	</linearGradient>
	<path style="fill:url(#SVGID_3_);" d="M318.723,300.784c-0.001,0.001-0.002,0.002-0.002,0.002S318.723,300.784,318.723,300.784
		c-0.092,0.103-0.191,0.208-0.297,0.316c0.004-0.004,0.008-0.009,0.013-0.013c-0.005,0.004-0.009,0.009-0.013,0.013
		c0,0-0.004,0.004-0.005,0.005l-0.004,0.004l0.004-0.004c-0.221,0.221-0.477,0.451-0.771,0.688l0.003-0.003l-0.003,0.003
		c-0.021,0.017-0.043,0.033-0.063,0.05c-0.008,0.006-0.016,0.012-0.024,0.019c0.008-0.006,0.016-0.012,0.024-0.019
		c-1.839,1.457-5.182,3.173-11.375,4.804c-8.407,2.428-13.438,11.128-11.279,19.702c2.204,8.752,11.059,14.053,19.78,11.842
		c1.337-0.339,2.619-0.865,3.828-1.527l-0.054,0.047c4.771-2.396,7.008-3.402,10.031-3.56c1.513-0.079,2.909,0.475,3.951,1.421
		c0.02,0.018,0.044,0.029,0.063,0.048c0.002,0.006,0.004,0.015,0.006,0.02c0.217,0.215,0.547,0.584,0.855,1.053
		c-0.003-0.004-0.005-0.008-0.007-0.012c0.082,0.124,0.164,0.252,0.241,0.391c4.578-1.575,7.762-6.036,7.499-11.128
		c-0.278-5.389-4.319-9.686-9.435-10.462c-0.732-0.111-1.484-0.15-2.251-0.11c-0.722,0.038-1.431,0.001-2.119-0.104
		c-0.688-0.104-1.355-0.276-1.994-0.509c-0.527-0.192-1.027-0.435-1.512-0.705c-0.25-0.14-0.492-0.29-0.729-0.449
		c-0.196-0.132-0.39-0.267-0.578-0.411c-2.335-1.809-3.904-4.585-4.068-7.773c-0.072-1.39,0.136-2.73,0.562-3.969l-0.006,0.006
		C318.914,300.563,318.822,300.672,318.723,300.784z"/>
	<path d="M333.628,336.071c0.4,0.706,0.603,1.422,0.648,2.288c0.035,0.688-0.071,1.347-0.27,1.966l0.01-0.001
		c0,0-0.017,0.059-0.047,0.144c-0.011,0.033-0.022,0.064-0.034,0.096c-0.447,1.214-3.162,7.137-15.455,13.952
		c-0.03,0.028-0.061,0.054-0.09,0.082c-5.334,2.853-9.511,7.54-11.736,13.18l0.017-0.013c-0.505,1.39-0.781,2.891-0.781,4.456
		c0,7.182,5.802,13.005,12.959,13.005c0.82,0,1.617-0.093,2.394-0.239c29.204-6.531,50.815-33.27,49.464-64.844
		c-1.399-32.652-27.772-59.205-60.305-60.707c-36.352-1.679-66.35,27.401-66.35,63.512c0,0.212,0.008,0.423,0.01,0.635
		c0.028,0.333,0.296,0.597,0.635,0.597c0.203,0,0.437-0.109,0.592-0.411l0.004,0.007c7.759-17.919,23.363-32.148,43.696-37.112
		c8.639-2.109,28.325-4.043,31.1,6.182c0.503,1.849,0.41,3.721-0.066,5.443c-0.006,0.015-0.01,0.031-0.016,0.046
		c-0.124,0.298-0.196,1.075-1.012,2.121l0.004-0.004c-0.425,1.238-0.632,2.577-0.56,3.967c0.164,3.188,1.733,5.964,4.068,7.773
		c0.188,0.144,0.382,0.279,0.578,0.411c0.237,0.159,0.479,0.309,0.729,0.449c0.484,0.27,0.985,0.513,1.512,0.705
		c0.639,0.233,1.306,0.405,1.994,0.509c0.688,0.105,1.397,0.141,2.119,0.104c0.767-0.04,1.52-0.001,2.251,0.11
		c5.117,0.776,9.157,5.073,9.435,10.462C341.389,330.035,338.205,334.496,333.628,336.071"/>
</g>
</svg>
